# xmcd CD database file
#
# Track frame offsets:
#	187
#	21867
#	45242
#	60607
#	87165
#	93517
#	180730
#
# Disc length: 3069 seconds
#
# Revision: 0
# Processed by: cddbd v1.5.1PL0 Copyright (c) Steve Scherf et al.
# Submitted via: CDex 1.51
#
DISCID=4d0bfb07
DTITLE=佐久間学 - コウモリ
DYEAR=1998
DGENRE=Rock
TTITLE0=ハリケーン
TTITLE1=コウモリ
TTITLE2=サイキックな関係
TTITLE3=I KNOW I'M BELIEVING
TTITLE4=イメージ広告(Instrumental)
TTITLE5=DENWA
TTITLE6=no name
EXTD=YEAR: 1998
EXTT0=
EXTT1=
EXTT2=
EXTT3=
EXTT4=
EXTT5=
EXTT6=
PLAYORDER=
